<svg width="1280" height="153" viewBox="0 0 1280 153" fill="none" xmlns="http://www.w3.org/2000/svg">
<g clip-path="url(#clip0_618_174)">
<path d="M830.203 97.8826C831.073 98.9407 831.616 100.613 831.616 101.912C831.616 110.796 824.38 116.049 809.11 118.287C813.682 110.895 821.005 103.29 830.203 97.8826ZM1161.34 97.7948C1162.09 98.7979 1162.54 100.315 1162.54 101.509C1162.54 110.227 1153.24 117.1 1138.21 119.657C1143.5 110.999 1152.46 102.616 1161.34 97.7948ZM802.247 55.3954C811.165 46.6502 814.824 39.3279 814.824 30.2455C814.824 14.2141 798.319 3 759.649 3C706.274 3 667 30.0545 667 48.5014C667 55.9511 672.728 59.9271 684.682 59.9271C689.795 59.9271 697.028 58.0002 699.409 55.7102C695.742 41.9069 721.589 19.3635 757.214 19.3635C776.361 19.3635 783.405 25.8238 783.405 34.3695C783.405 45.7091 774.231 61.99 744.096 82.5462C733.886 89.509 731.612 92.6437 731.612 97.6761C731.612 106.955 746.737 119.296 746.737 131.705C746.737 138.966 738.942 143.573 725.7 143.573C719.551 143.573 712.712 142.642 708.777 140.982C714.735 114.404 735.516 62.1465 743.605 49.5595C743.324 47.4038 740.142 45.642 734.393 45.642C722.114 45.642 714.072 49.7918 710.081 58.9516C700.705 80.4713 685.854 124.283 681.379 146.963C679.153 158.249 687.833 164.935 707.64 164.935C741.028 164.935 774.589 143.25 774.589 123.623C774.589 109.986 758.26 98.6413 758.26 91.2398C758.26 84.3613 784.723 72.583 802.247 55.3971M1230.48 130.812C1231.07 117.694 1228.07 99.283 1233.85 86.5911C1233.56 85.2457 1230.98 84.4955 1227.49 84.4955C1219.49 84.4955 1215.42 86.5274 1211.09 92.47C1202.52 104.214 1192.85 115.69 1184.59 123.79C1168.47 139.602 1156.68 146.068 1146.36 146.068C1138.76 146.068 1133.48 140.685 1133.48 133.254C1133.48 131.97 1133.67 130.585 1134.03 129.13C1162.16 127.649 1179.79 112.67 1179.79 100.403C1179.79 92.5302 1169.74 84.1222 1162.66 82.1918C1152.55 84.4801 1141.07 91.4686 1130.62 101.723C1118.02 114.079 1111.83 131.341 1103.76 131.341C1097.22 131.341 1090.49 120.349 1086.7 91.0764C1085.96 90.617 1084.39 90.223 1082.64 90.223C1077.12 90.223 1075.06 91.7061 1072.18 96.5922C1062.71 112.649 1053.84 127.449 1043.07 140.528C1046.06 127.363 1049.98 111.743 1054.02 97.0722C1065.71 76.9237 1078.6 45.5646 1078.6 29.8016C1078.6 24.9688 1077.03 22.3554 1073.53 20.2426C1070.03 18.1316 1066.06 17.3608 1064.61 18.3191C1053.69 28.5525 1040.98 67.6504 1031.79 104.14C1006.89 135.773 988.259 146.097 977.375 146.097C971.182 146.097 965.036 140.896 965.036 132.853C965.036 124.81 975.945 108.852 992.498 99.9213C993.985 103.684 992.584 109.678 986.901 117.496C988.264 119.099 990.924 120.35 994.798 120.35C1002.74 120.35 1011.16 109.862 1011.16 102.222C1011.16 94.581 1001.05 85.1304 994.054 83.1725C982.089 85.9683 971.303 92.63 961.007 102.726C944.857 118.564 937.026 137.842 929.886 137.842C925.387 137.842 922.566 132.927 922.756 116.92C921.405 116.235 918.565 115.743 916.282 115.743C910.012 115.743 907.293 117.135 902.461 120.557C892.372 127.704 880.093 138.377 872.533 146.897C877.168 128.505 901.724 102.753 924.693 95.8283C925.475 93.75 923.703 88.1189 918.872 83.3807C915.738 80.3079 912.458 79.501 906.386 81.8925C893.333 87.0298 884.484 95.0954 865.707 113.506C843.558 135.227 825.572 146.237 816.703 146.237C809.109 146.237 803.84 140.853 803.84 133.422C803.84 131.54 804.2 129.6 804.773 127.662C833.309 126.646 848.868 113.224 848.868 100.807C848.868 92.9345 838.244 84.0482 831.242 82.1006C809.363 88.1275 782.207 116.34 782.207 135.835C782.207 150.823 793.891 162.621 810.188 162.621C821.263 162.621 839.047 151.656 857.603 132.844C854.794 139.523 853.187 145.937 853.187 151.463C853.187 158.199 865.324 164.961 870.061 164.854C878.138 155.255 893.826 142.111 904.687 135.49C906.57 152.747 914.331 159.844 921.214 159.844C928.096 159.844 936.779 152.201 944.672 140.297C946.428 151.133 957.18 163.465 972.893 163.465C988.605 163.465 1007.7 150.199 1027.05 124.049C1024.69 134.118 1021.8 147.881 1021.8 152.995C1021.8 158.708 1031.39 162.151 1036.71 162.142C1041.67 162.134 1058.65 139.721 1071.35 119.179C1073.69 138.46 1082.78 154.538 1092.37 154.538C1097.74 154.538 1103.44 151.186 1112.17 139.666C1114.21 152.841 1126.19 162.452 1140.57 162.452C1155.85 162.452 1169.11 156.454 1189.79 136.175C1196.61 129.486 1204.07 120.589 1210.48 110.772C1209.29 119.364 1212.13 132.865 1210.71 137.889C1199.67 143.338 1192.38 149.012 1190.08 152.391C1190.42 157.38 1193.47 161.871 1199.74 161.871C1210.84 161.871 1222.98 154.92 1228.04 142.957C1233.85 141.392 1240.17 140.642 1245.1 140.642C1257.65 140.642 1267.15 144.745 1269.04 152.544C1272.24 153.721 1281.32 150.481 1288.48 143.458C1292.24 139.768 1294.02 136.346 1294.02 133.421C1294.02 128.328 1288.43 123.956 1274.71 123.956C1258.25 123.956 1243.22 126.804 1230.48 130.811M1255.96 154.66C1255.96 153.309 1255.03 152.425 1253.26 152.425H1250.86V159.656H1251.86V156.924H1253.27L1255.01 159.656H1256.17L1254.33 156.785C1255.34 156.48 1255.96 155.727 1255.96 154.66ZM1253.24 156.048H1251.85V153.303H1253.24C1254.41 153.303 1254.94 153.855 1254.94 154.662C1254.94 155.469 1254.41 156.048 1253.24 156.048ZM1253.11 149.81C1249.57 149.81 1246.64 152.484 1246.64 156.104C1246.64 159.723 1249.57 162.366 1253.11 162.366C1256.65 162.366 1259.68 159.691 1259.68 156.104C1259.68 152.516 1256.71 149.81 1253.11 149.81ZM1253.11 161.511C1249.97 161.511 1247.69 159.307 1247.69 156.104C1247.69 152.9 1249.97 150.663 1253.11 150.663C1256.26 150.663 1258.66 152.869 1258.66 156.104C1258.66 159.338 1256.32 161.511 1253.11 161.511Z" fill="#F9F0D9"/>
<path d="M296.262 144.414C295.441 144.046 294.748 143.448 294.271 142.696C293.794 141.944 293.554 141.071 293.58 140.185C293.58 131.443 308.605 111.788 324.085 103.184C323.392 108.837 323.036 114.524 323.02 120.218C315.821 129.943 306.722 138.168 296.253 144.414M507.595 44.183C509.166 52.1441 502.536 76.8446 484.343 103.371C486.951 82.2785 495.548 58.154 507.595 44.183ZM56.7003 31.9577C59.0105 31.7198 61.3423 32.1287 63.4253 33.1371C65.5083 34.1454 67.2574 35.7119 68.4698 37.6551C74.885 38.3874 99.0297 24.1127 99.0297 13.7717C99.0342 8.74853 93.73 5.00684 83.6405 5.00684C56.2951 5.00684 18.4094 28.7027 18.4094 50.3447C18.4094 76.4517 49.5065 113.194 49.5065 128.826C49.5065 134.707 43.0139 139.199 32.3917 139.15C25.3072 139.118 19.0286 135.993 17.822 131.697C6.9813 130.751 -15.0234 145.106 -15.0234 156.965C-15.0234 162.926 -9.04988 166.194 2.10047 166.194C28.2712 166.194 78.3817 143.065 78.3817 120.682C78.3817 96.2898 42.9365 60.7616 42.9365 41.303C42.9365 36.012 47.8082 31.98 56.7048 31.98M561.316 134.564C561.921 121.41 558.885 102.983 564.685 90.2352C564.394 88.8957 561.817 88.1322 558.311 88.1322C555.069 87.8327 551.807 88.4364 548.899 89.8739C545.992 91.3114 543.557 93.5245 541.875 96.2585C517.953 129.041 503.37 142.53 494.314 142.53C488.704 142.53 484.502 136.725 483.669 121.794C506.01 96.2407 524.569 62.1636 524.569 40.6243C524.569 30.6718 520.967 24.8762 510.909 22.0632C508.139 20.9271 505.056 20.7477 502.168 21.5542C476.448 42.9149 464.132 86.8641 464.783 120.678C453.906 133.157 444.449 139.346 439.951 139.346C436.286 139.346 433.094 134.939 433.285 119.365C431.217 118.581 429.014 118.193 426.797 118.222C421.748 118.027 416.81 119.701 412.96 122.91C402.06 130.621 392.013 139.429 382.983 149.191C387.705 131.287 413.288 106.644 435.343 100.228C436.058 97.3614 430.749 85.3594 423.104 85.3594C417.5 85.3594 402.966 91.3649 387.195 106.836C372.566 121.182 362.29 136.788 351.299 136.788C345.589 136.788 341.414 130.795 341.373 116.606C353.917 93.6465 369.871 49.5856 369.871 31.5559C370.016 29.6955 369.614 27.8334 368.714 26.1899C367.813 24.5464 366.451 23.1903 364.789 22.282C362.328 20.81 359.571 19.8764 356.708 19.545C342.466 32.623 330.687 64.0478 325.638 92.6508C324.635 91.2277 323.304 90.0572 321.752 89.2347C320.201 88.4122 318.473 87.961 316.71 87.9179C312.157 87.9179 304.016 92.2445 295.26 100.831C280.841 114.971 272.04 133.626 264.022 133.626C257.466 133.626 250.75 122.611 246.953 93.2759C245.691 92.663 244.294 92.3683 242.887 92.4186C240.667 92.1918 238.433 92.6957 236.537 93.8509C234.641 95.006 233.191 96.7468 232.415 98.7991C224.121 113.037 214.486 126.482 203.635 138.958C208.967 124.908 212.514 110.269 214.198 95.37C214.198 89.3065 201.555 86.1631 197.352 87.3687C181.872 121.535 164.325 140.136 156.912 140.136C152.405 140.136 149.577 135.225 149.769 119.151C147.706 118.344 145.501 117.943 143.28 117.972C138.202 117.773 133.242 119.502 129.43 122.799C118.498 130.769 108.449 139.842 99.4486 149.87C104.184 131.452 129.685 105.443 151.731 98.7723C152.892 95.6915 147.36 83.4216 139.547 83.4216C133.769 83.4216 120.424 89.8334 107.972 102.023C91.9543 117.726 80.0664 139.458 80.0664 154.527C80.0664 160.671 92.0727 168.056 96.9763 167.944C107.208 156.548 118.849 146.448 131.629 137.877C133.346 155.108 140.48 162.194 146.773 162.194C157.572 162.194 175.548 144.208 187.495 124.616C184.654 135.997 181.212 148.334 178.935 155.706C180.487 157.974 182.532 159.878 184.923 161.281C187.313 162.683 189.99 163.55 192.763 163.819C197.817 163.819 217.731 141.047 231.527 120.825C233.758 140.418 242.96 156.871 252.667 156.871C259.337 156.871 265.611 150.861 272.932 141.244C271.166 151.986 278.091 160.108 290.12 164.368C296.849 162.202 312.616 149.473 324.482 134.626C327.441 149.066 334.448 157.215 341.2 157.215C347.324 157.215 355.287 152.884 365.331 142.927C364.236 146.4 363.645 150.008 363.578 153.643C363.578 159.666 375.503 166.784 380.488 166.672C390.765 155.574 402.406 145.769 415.146 137.484C416.871 154.058 424.102 161.117 430.99 161.117C439.017 161.117 451.848 151.79 466.253 136.113C469.759 154.791 479.002 161.528 488.563 161.528C500.173 161.528 516.733 148.758 541.096 115.753C540.317 124.424 542.863 136.984 541.447 141.699C533.322 145.152 526.03 150.246 520.047 156.648C520.018 157.903 520.249 159.152 520.725 160.317C521.202 161.483 521.915 162.541 522.82 163.429C523.726 164.317 524.806 165.015 525.994 165.482C527.183 165.949 528.456 166.174 529.736 166.145C535.955 165.931 541.984 163.992 547.125 160.553C552.266 157.115 556.307 152.318 558.78 146.718C564.385 145.227 570.16 144.441 575.968 144.378C588.543 144.378 598.063 148.49 599.967 156.309C603.154 157.487 612.587 153.924 619.444 147.2C622.554 144.678 624.545 141.072 624.999 137.14C624.999 132.037 619.39 127.657 605.649 127.657C590.6 127.686 575.646 130.003 561.32 134.524M586.767 158.425C586.767 157.086 585.857 156.193 584.063 156.193H581.659V163.439H582.651V160.702H584.072L585.816 163.439H586.977L585.133 160.559C585.612 160.44 586.035 160.164 586.333 159.777C586.63 159.39 586.783 158.91 586.767 158.425ZM584.036 159.818H582.642V157.086H584.036C585.206 157.086 585.734 157.644 585.734 158.447C585.734 159.251 585.206 159.836 584.036 159.836M583.903 153.585C582.643 153.617 581.419 154.012 580.387 154.722C579.354 155.431 578.557 156.424 578.096 157.575C577.635 158.726 577.53 159.985 577.795 161.194C578.06 162.403 578.682 163.509 579.584 164.374C580.486 165.238 581.628 165.823 582.867 166.054C584.105 166.286 585.386 166.154 586.549 165.675C587.712 165.197 588.706 164.393 589.405 163.364C590.105 162.335 590.479 161.126 590.483 159.89C590.49 159.047 590.324 158.212 589.995 157.433C589.665 156.655 589.178 155.951 588.564 155.362C587.949 154.773 587.219 154.312 586.419 154.007C585.618 153.701 584.762 153.558 583.903 153.585ZM583.903 165.31C582.461 165.27 581.091 164.679 580.085 163.664C579.079 162.649 578.517 161.289 578.517 159.874C578.517 158.459 579.079 157.099 580.085 156.084C581.091 155.069 582.461 154.478 583.903 154.438C584.645 154.417 585.383 154.542 586.074 154.806C586.765 155.07 587.395 155.467 587.927 155.974C588.459 156.481 588.882 157.087 589.17 157.757C589.459 158.427 589.608 159.147 589.608 159.874C589.608 160.601 589.459 161.321 589.17 161.991C588.882 162.661 588.459 163.267 587.927 163.774C587.395 164.281 586.765 164.678 586.074 164.942C585.383 165.206 584.645 165.331 583.903 165.31Z" fill="#F9F0D9"/>
</g>
<defs>
<clipPath id="clip0_618_174">
<rect width="1280" height="153" fill="white"/>
</clipPath>
</defs>
</svg>
