<svg width="32" height="29" viewBox="0 0 32 29" fill="none" xmlns="http://www.w3.org/2000/svg">
<path d="M23.6224 10.3679C24.6337 10.3679 25.6222 10.068 26.4631 9.50619C27.304 8.94435 27.9593 8.14579 28.3463 7.21148C28.7333 6.27717 28.8346 5.24909 28.6373 4.25723C28.44 3.26538 27.953 2.3543 27.2379 1.63921C26.5228 0.924125 25.6118 0.437144 24.6199 0.239852C23.6281 0.0425595 22.6 0.143817 21.6657 0.53082C20.7314 0.917822 19.9328 1.57319 19.371 2.41404C18.8091 3.2549 18.5092 4.24347 18.5092 5.25476C18.5092 6.61085 19.0479 7.91141 20.0068 8.87031C20.9657 9.82921 22.2663 10.3679 23.6224 10.3679ZM23.6224 2.69818C24.128 2.69818 24.6223 2.84812 25.0427 3.12904C25.4632 3.40996 25.7909 3.80925 25.9844 4.2764C26.1779 4.74355 26.2285 5.2576 26.1298 5.75352C26.0312 6.24945 25.7877 6.70499 25.4302 7.06253C25.0726 7.42008 24.6171 7.66357 24.1212 7.76221C23.6252 7.86086 23.1112 7.81023 22.644 7.61673C22.1769 7.42323 21.7776 7.09555 21.4967 6.67512C21.2157 6.25469 21.0658 5.7604 21.0658 5.25476C21.0658 4.57671 21.3352 3.92644 21.8146 3.44699C22.2941 2.96753 22.9443 2.69818 23.6224 2.69818ZM30.9981 23.3489C31.2152 23.6088 31.3204 23.9443 31.2904 24.2816C31.2605 24.6189 31.0979 24.9306 30.8383 25.1481C28.0644 27.4475 25.5878 28.264 23.3284 28.264C20.3596 28.264 17.7646 26.8547 15.3503 25.5476C11.2997 23.3489 7.80196 21.4491 2.71597 25.6658C2.58701 25.7746 2.4378 25.8568 2.27693 25.9076C2.11607 25.9584 1.94673 25.9769 1.77869 25.962C1.61065 25.9471 1.44722 25.899 1.29783 25.8206C1.14845 25.7422 1.01606 25.635 0.908295 25.5052C0.800532 25.3754 0.719528 25.2256 0.669954 25.0643C0.620381 24.9031 0.603217 24.7336 0.619453 24.5657C0.63569 24.3978 0.685005 24.2347 0.764556 24.0859C0.844106 23.9372 0.952319 23.8056 1.08295 23.6989C7.50156 18.3796 12.3191 20.9937 16.571 23.301C20.6216 25.5013 24.1193 27.3995 29.2053 23.1828C29.4656 22.9684 29.8001 22.8655 30.1359 22.8967C30.4717 22.9278 30.7816 23.0904 30.9981 23.3489ZM1.07496 17.3058C0.944329 17.4126 0.836117 17.5441 0.756566 17.6929C0.677016 17.8417 0.6277 18.0047 0.611464 18.1726C0.595227 18.3406 0.612391 18.51 0.661965 18.6713C0.711539 18.8326 0.792543 18.9824 0.900306 19.1122C1.00807 19.242 1.14046 19.3492 1.28985 19.4276C1.43923 19.506 1.60266 19.554 1.7707 19.5689C1.93874 19.5839 2.10808 19.5654 2.26894 19.5146C2.42981 19.4637 2.57902 19.3816 2.70798 19.2728C7.79397 15.0576 11.2917 16.9559 15.3423 19.1546C17.7566 20.4648 20.3516 21.8709 23.3204 21.8709C25.5798 21.8709 28.0565 21.0544 30.8303 18.7551C30.961 18.6483 31.0692 18.5168 31.1487 18.368C31.2283 18.2192 31.2776 18.0562 31.2938 17.8883C31.3101 17.7204 31.2929 17.5509 31.2433 17.3896C31.1938 17.2284 31.1128 17.0785 31.005 16.9487C30.8972 16.8189 30.7648 16.7117 30.6155 16.6333C30.4661 16.555 30.3026 16.5069 30.1346 16.492C29.9666 16.4771 29.7972 16.4955 29.6364 16.5464C29.4755 16.5972 29.3263 16.6794 29.1973 16.7881C28.2732 17.5817 27.2346 18.2314 26.1166 18.7151L17.5138 10.1155C15.9738 8.56902 14.1425 7.3432 12.1258 6.50889C10.1092 5.67458 7.94711 5.24832 5.76469 5.25476H1.89147C1.55245 5.25476 1.22731 5.38944 0.987585 5.62916C0.74786 5.86889 0.613183 6.19403 0.613183 6.53305C0.613183 6.87207 0.74786 7.19721 0.987585 7.43694C1.22731 7.67666 1.55245 7.81134 1.89147 7.81134H5.76469C8.10112 7.80686 10.4016 8.38691 12.4565 9.49868L7.72207 14.2299C5.69758 14.4185 3.50052 15.2957 1.07496 17.3058ZM15.7066 11.9258L23.0775 19.2952C20.8405 19.2265 18.7825 18.1143 16.563 16.9096C14.8453 15.9764 13.0334 14.9921 11.0632 14.5048L14.62 10.9479C14.9991 11.2547 15.3618 11.5811 15.7066 11.9258Z" fill="#0057FF"/>
</svg>
