<svg width="31" height="26" viewBox="0 0 31 26" fill="none" xmlns="http://www.w3.org/2000/svg">
<path d="M30.4674 20.8481C30.6823 21.1058 30.7863 21.4382 30.7566 21.7725C30.7269 22.1068 30.5659 22.4156 30.3088 22.6314C27.5569 24.9126 25.0998 25.7226 22.8583 25.7226C19.913 25.7226 17.3386 24.3244 14.9433 23.0277C10.9248 20.8465 7.45472 18.9632 2.40896 23.145C2.28102 23.2529 2.13299 23.3345 1.97339 23.3849C1.8138 23.4353 1.6458 23.4537 1.47909 23.4388C1.31238 23.424 1.15025 23.3764 1.00204 23.2986C0.853839 23.2208 0.722495 23.1145 0.615584 22.9857C0.508674 22.8569 0.428311 22.7083 0.379129 22.5483C0.329948 22.3883 0.31292 22.2202 0.329028 22.0536C0.345136 21.887 0.394061 21.7252 0.472982 21.5776C0.551903 21.43 0.65926 21.2995 0.788862 21.1936C7.15669 15.918 11.9361 18.5114 16.1544 20.8005C20.1729 22.9802 23.643 24.8634 28.6887 20.6832C28.947 20.4705 29.2789 20.3685 29.612 20.3994C29.9452 20.4302 30.2526 20.5915 30.4674 20.8481ZM28.6808 11.8123C23.6351 15.9941 20.165 14.1109 16.1465 11.9296C11.9282 9.64213 7.14877 7.04871 0.780936 12.3243C0.525141 12.5401 0.364988 12.8482 0.335375 13.1815C0.305762 13.5148 0.40909 13.8463 0.622843 14.1038C0.836595 14.3613 1.14345 14.5238 1.47652 14.556C1.8096 14.5882 2.14191 14.4875 2.40103 14.2757C7.44679 10.0939 10.9168 11.9772 14.9354 14.1584C17.3306 15.4567 19.905 16.8533 22.8504 16.8533C25.0919 16.8533 27.549 16.0432 30.3009 13.7621C30.4305 13.6562 30.5379 13.5257 30.6168 13.3781C30.6957 13.2305 30.7446 13.0688 30.7608 12.9022C30.7769 12.7356 30.7598 12.5674 30.7107 12.4075C30.6615 12.2475 30.5811 12.0988 30.4742 11.97C30.3673 11.8413 30.2359 11.7349 30.0877 11.6572C29.9395 11.5794 29.7774 11.5317 29.6107 11.5169C29.444 11.5021 29.276 11.5204 29.1164 11.5709C28.9568 11.6213 28.8088 11.7028 28.6808 11.8107V11.8123ZM2.40103 5.40008C7.44679 1.21985 10.9168 3.10309 14.9354 5.28277C17.3306 6.58265 19.905 7.97765 22.8504 7.97765C25.0919 7.97765 27.549 7.16601 30.3009 4.88647C30.4305 4.78056 30.5379 4.65005 30.6168 4.50245C30.6957 4.35486 30.7446 4.1931 30.7608 4.02651C30.7769 3.85992 30.7598 3.69178 30.7107 3.5318C30.6615 3.37182 30.5811 3.22316 30.4742 3.09439C30.3673 2.96561 30.2359 2.85928 30.0877 2.7815C29.9395 2.70373 29.7774 2.65607 29.6107 2.64126C29.444 2.62645 29.276 2.64478 29.1164 2.69521C28.9568 2.74563 28.8088 2.82715 28.6808 2.93506C23.6351 7.11687 20.165 5.23363 16.1465 3.05237C11.9282 0.768062 7.14877 -1.82536 0.780936 3.45026C0.646813 3.55463 0.535039 3.68491 0.452254 3.83333C0.369468 3.98176 0.317361 4.14531 0.299027 4.31427C0.280693 4.48323 0.296507 4.65415 0.345529 4.81688C0.394551 4.9796 0.475781 5.13082 0.584393 5.26154C0.693005 5.39225 0.826783 5.49981 0.97778 5.5778C1.12878 5.6558 1.29391 5.70266 1.46337 5.71558C1.63283 5.7285 1.80316 5.70723 1.96423 5.65303C2.12531 5.59884 2.27385 5.51281 2.40103 5.40008Z" fill="#0057FF"/>
</svg>
