<svg width="216" height="32" viewBox="0 0 216 32" fill="none" xmlns="http://www.w3.org/2000/svg">
<g clip-path="url(#clip0_1_543)">
<path d="M142.987 17.9439C143.122 18.1118 143.206 18.3772 143.206 18.5834C143.206 19.9934 142.08 20.827 139.704 21.1823C140.415 20.009 141.555 18.8021 142.987 17.9439ZM194.524 17.93C194.642 18.0892 194.711 18.33 194.711 18.5195C194.711 19.903 193.263 20.9939 190.924 21.3996C191.748 20.0256 193.141 18.6951 194.524 17.93ZM138.636 11.2009C140.023 9.81303 140.593 8.65094 140.593 7.20951C140.593 4.66523 138.024 2.8855 132.006 2.8855C123.698 2.8855 117.586 7.1792 117.586 10.1068C117.586 11.2891 118.477 11.9202 120.338 11.9202C121.134 11.9202 122.259 11.6143 122.63 11.2509C122.059 9.06024 126.082 5.48247 131.627 5.48247C134.607 5.48247 135.703 6.50777 135.703 7.86401C135.703 9.66368 134.275 12.2475 129.585 15.5099C127.996 16.615 127.642 17.1125 127.642 17.9111C127.642 19.3837 129.996 21.3423 129.996 23.3118C129.996 24.464 128.783 25.1953 126.722 25.1953C125.765 25.1953 124.701 25.0475 124.088 24.7841C125.015 20.566 128.25 12.2724 129.509 10.2748C129.465 9.93263 128.97 9.65303 128.075 9.65303C126.164 9.65303 124.912 10.3116 124.291 11.7653C122.832 15.1806 120.52 22.1338 119.824 25.7332C119.477 27.5244 120.828 28.5854 123.911 28.5854C129.108 28.5854 134.331 25.1439 134.331 22.029C134.331 19.8648 131.789 18.0643 131.789 16.8897C131.789 15.798 135.908 13.9287 138.636 11.2012M205.285 23.1701C205.377 21.0881 204.91 18.1662 205.809 16.1519C205.764 15.9383 205.363 15.8193 204.819 15.8193C203.574 15.8193 202.941 16.1418 202.266 17.0849C200.933 18.9487 199.429 20.77 198.143 22.0555C195.634 24.5651 193.798 25.5912 192.192 25.5912C191.01 25.5912 190.188 24.7368 190.188 23.5575C190.188 23.3538 190.218 23.134 190.274 22.903C194.652 22.6679 197.396 20.2908 197.396 18.3439C197.396 17.0944 195.831 15.76 194.73 15.4537C193.156 15.8168 191.37 16.926 189.743 18.5533C187.782 20.5144 186.819 23.2539 185.563 23.2539C184.545 23.2539 183.497 21.5094 182.907 16.8637C182.793 16.7908 182.548 16.7283 182.276 16.7283C181.416 16.7283 181.096 16.9636 180.647 17.7391C179.174 20.2875 177.792 22.6362 176.117 24.712C176.583 22.6226 177.193 20.1436 177.821 17.8153C179.641 14.6176 181.647 9.64074 181.647 7.13906C181.647 6.37207 181.403 5.9573 180.857 5.622C180.313 5.28697 179.695 5.16464 179.47 5.31673C177.77 6.94083 175.792 13.1459 174.361 18.937C170.486 23.9573 167.586 25.5958 165.892 25.5958C164.928 25.5958 163.972 24.7704 163.972 23.4939C163.972 22.2174 165.67 19.6849 168.246 18.2675C168.477 18.8646 168.259 19.8159 167.375 21.0567C167.587 21.3111 168.001 21.5096 168.604 21.5096C169.84 21.5096 171.151 19.8451 171.151 18.6325C171.151 17.4199 169.577 15.9201 168.488 15.6093C166.626 16.053 164.947 17.1103 163.345 18.7125C160.831 21.2262 159.612 24.2857 158.501 24.2857C157.801 24.2857 157.362 23.5056 157.391 20.9652C157.181 20.8565 156.739 20.7784 156.384 20.7784C155.408 20.7784 154.985 20.9993 154.233 21.5424C152.662 22.6767 150.751 24.3707 149.575 25.7228C150.296 22.8039 154.118 18.7169 157.693 17.6179C157.815 17.288 157.539 16.3943 156.787 15.6424C156.299 15.1547 155.789 15.0266 154.844 15.4062C152.812 16.2215 151.435 17.5016 148.512 20.4235C145.065 23.8707 142.266 25.6179 140.886 25.6179C139.703 25.6179 138.884 24.7636 138.884 23.5843C138.884 23.2856 138.939 22.9776 139.029 22.6701C143.47 22.5087 145.892 20.3787 145.892 18.4081C145.892 17.1586 144.238 15.7483 143.148 15.4392C139.743 16.3957 135.517 20.8732 135.517 23.9671C135.517 26.3459 137.335 28.2182 139.871 28.2182C141.595 28.2182 144.363 26.4781 147.251 23.4925C146.814 24.5525 146.564 25.5704 146.564 26.4475C146.564 27.5165 148.453 28.5895 149.19 28.5726C150.447 27.0493 152.889 24.9632 154.579 23.9125C154.872 26.6512 156.08 27.7775 157.151 27.7775C158.223 27.7775 159.574 26.5646 160.802 24.6754C161.076 26.395 162.749 28.3523 165.195 28.3523C167.64 28.3523 170.612 26.2468 173.623 22.0967C173.256 23.6946 172.806 25.879 172.806 26.6905C172.806 27.5973 174.298 28.1437 175.127 28.1423C175.899 28.1409 178.541 24.5839 180.518 21.3237C180.882 24.3838 182.298 26.9354 183.79 26.9354C184.625 26.9354 185.512 26.4035 186.871 24.5752C187.189 26.6662 189.053 28.1914 191.292 28.1914C193.67 28.1914 195.733 27.2396 198.952 24.0212C200.014 22.9595 201.174 21.5476 202.173 19.9896C201.987 21.3532 202.429 23.4958 202.207 24.2931C200.49 25.1579 199.355 26.0584 198.997 26.5946C199.05 27.3865 199.525 28.0991 200.501 28.0991C202.229 28.0991 204.118 26.996 204.905 25.0975C205.809 24.849 206.794 24.73 207.56 24.73C209.513 24.73 210.992 25.3812 211.287 26.6189C211.785 26.8057 213.197 26.2916 214.312 25.177C214.897 24.5913 215.175 24.0482 215.175 23.584C215.175 22.7758 214.304 22.082 212.17 22.082C209.607 22.082 207.268 22.5339 205.286 23.1698M209.251 26.9548C209.251 26.7405 209.106 26.6001 208.831 26.6001H208.458V27.7477H208.612V27.3141H208.832L209.103 27.7477H209.284L208.997 27.292C209.154 27.2437 209.251 27.1241 209.251 26.9548ZM208.828 27.1751H208.612V26.7394H208.828C209.01 26.7394 209.092 26.827 209.092 26.9551C209.092 27.0831 209.01 27.1751 208.828 27.1751ZM208.808 26.1851C208.257 26.1851 207.8 26.6094 207.8 27.1839C207.8 27.7584 208.257 28.1778 208.808 28.1778C209.358 28.1778 209.829 27.7532 209.829 27.1839C209.829 26.6146 209.368 26.1851 208.808 26.1851ZM208.808 28.0421C208.318 28.0421 207.963 27.6923 207.963 27.1839C207.963 26.6755 208.318 26.3205 208.808 26.3205C209.297 26.3205 209.671 26.6706 209.671 27.1839C209.671 27.6972 209.306 28.0421 208.808 28.0421Z" fill="#0057FF"/>
</g>
<g clip-path="url(#clip1_1_543)">
<path d="M48.1527 24.8753C48.0256 24.8172 47.9185 24.723 47.8447 24.6044C47.771 24.4857 47.7338 24.348 47.7379 24.2084C47.7379 22.8293 50.0621 19.729 52.4567 18.3718C52.3494 19.2634 52.2944 20.1606 52.2919 21.0587C51.1782 22.5927 49.7708 23.8901 48.1513 24.8753M80.8438 9.06508C81.0867 10.3209 80.0613 14.2171 77.2469 18.4014C77.6504 15.0742 78.9802 11.2689 80.8438 9.06508ZM11.0949 7.13669C11.4523 7.09916 11.813 7.16367 12.1352 7.32272C12.4574 7.48177 12.728 7.72887 12.9156 8.03538C13.9079 8.15089 17.6429 5.89922 17.6429 4.26805C17.6436 3.47571 16.8231 2.8855 15.2623 2.8855C11.0322 2.8855 5.17172 6.62325 5.17172 10.037C5.17172 14.1551 9.98213 19.9508 9.98213 22.4166C9.98213 23.3442 8.97779 24.0527 7.33464 24.045C6.23874 24.04 5.2675 23.547 5.08086 22.8695C3.40391 22.7202 0 24.9845 0 26.8551C0 27.7954 0.924049 28.3109 2.64889 28.3109C6.69724 28.3109 14.4488 24.6626 14.4488 21.132C14.4488 17.2843 8.96581 11.6802 8.96581 8.6108C8.96581 7.7762 9.71942 7.14021 11.0956 7.14021M89.1539 23.3216C89.2475 21.2468 88.7777 18.3401 89.675 16.3293C89.63 16.118 89.2313 15.9976 88.689 15.9976C88.1875 15.9503 87.6829 16.0455 87.2331 16.2723C86.7834 16.4991 86.4067 16.8481 86.1465 17.2794C82.446 22.4504 80.1902 24.5781 78.7893 24.5781C77.9216 24.5781 77.2715 23.6625 77.1426 21.3073C80.5986 17.2766 83.4694 11.9013 83.4694 8.50375C83.4694 6.93385 82.9123 6.01966 81.3565 5.57595C80.9278 5.39674 80.4511 5.36843 80.0042 5.49566C76.0256 8.86505 74.1204 15.7975 74.2212 21.1312C72.5386 23.0998 71.0757 24.0759 70.3799 24.0759C69.8129 24.0759 69.3192 23.3808 69.3488 20.9242C69.0288 20.8006 68.6881 20.7394 68.3451 20.7439C67.5642 20.7132 66.8002 20.9771 66.2048 21.4834C64.5186 22.6996 62.9644 24.0891 61.5676 25.6289C62.298 22.8047 66.2555 18.9176 69.6671 17.9055C69.7777 17.4534 68.9565 15.5602 67.7739 15.5602C66.9069 15.5602 64.6588 16.5075 62.2191 18.9479C59.9562 21.2108 58.3665 23.6724 56.6663 23.6724C55.7831 23.6724 55.1373 22.7272 55.131 20.4889C57.0713 16.8674 59.5392 9.91729 59.5392 7.0733C59.5616 6.77986 59.4995 6.48613 59.3602 6.22688C59.2209 5.96764 59.0103 5.75372 58.7532 5.61046C58.3724 5.37826 57.946 5.23099 57.5031 5.17872C55.3 7.24163 53.4779 12.1985 52.6969 16.7103C52.5418 16.4858 52.3358 16.3012 52.0958 16.1715C51.8558 16.0417 51.5885 15.9706 51.3157 15.9638C50.6114 15.9638 49.3521 16.6462 47.9977 18.0006C45.7672 20.2311 44.4058 23.1737 43.1655 23.1737C42.1513 23.1737 41.1124 21.4362 40.5251 16.8089C40.3299 16.7122 40.1137 16.6658 39.8961 16.6737C39.5527 16.6379 39.2071 16.7174 38.9139 16.8996C38.6206 17.0818 38.3963 17.3564 38.2762 17.6801C36.9932 19.926 35.5027 22.0468 33.8243 24.0147C34.649 21.7986 35.1978 19.4894 35.4583 17.1392C35.4583 16.1828 33.5024 15.687 32.8523 15.8771C30.4577 21.2665 27.7433 24.2006 26.5967 24.2006C25.8994 24.2006 25.4621 23.4259 25.4916 20.8904C25.1725 20.7631 24.8315 20.6999 24.488 20.7044C23.7025 20.6731 22.9351 20.9458 22.3455 21.4658C20.6544 22.723 19.0999 24.1542 17.7077 25.736C18.4401 22.8307 22.385 18.7282 25.7952 17.6759C25.9748 17.1899 25.1191 15.2545 23.9105 15.2545C23.0167 15.2545 20.9524 16.2659 19.0261 18.1887C16.5484 20.6657 14.7094 24.0936 14.7094 26.4706C14.7094 27.4397 16.5667 28.6046 17.3252 28.587C18.9079 26.7894 20.7086 25.1962 22.6857 23.8442C22.9512 26.5621 24.0549 27.6799 25.0282 27.6799C26.6988 27.6799 29.4794 24.8429 31.3275 21.7524C30.888 23.5477 30.3556 25.4937 30.0034 26.6565C30.2435 27.0144 30.5598 27.3146 30.9296 27.5359C31.2994 27.7571 31.7136 27.8939 32.1424 27.9363C32.9242 27.9363 36.0048 24.3443 38.1389 21.1545C38.484 24.245 39.9074 26.8404 41.409 26.8404C42.4408 26.8404 43.4113 25.8924 44.5438 24.3753C44.2706 26.0698 45.3418 27.351 47.2026 28.0229C48.2435 27.6813 50.6826 25.6733 52.518 23.3315C52.9758 25.6092 54.0597 26.8946 55.1042 26.8946C56.0515 26.8946 57.2833 26.2114 58.837 24.6408C58.6675 25.1887 58.5762 25.7577 58.5658 26.3311C58.5658 27.2812 60.4104 28.4039 61.1816 28.3863C62.7713 26.6357 64.5721 25.0892 66.5428 23.7823C66.8098 26.3966 67.9282 27.5101 68.9938 27.5101C70.2355 27.5101 72.2202 26.0388 74.4487 23.566C74.991 26.5121 76.4207 27.5749 77.8998 27.5749C79.6957 27.5749 82.2573 25.5606 86.026 20.3544C85.9056 21.7222 86.2993 23.7034 86.0803 24.4471C84.8234 24.9918 83.6955 25.7953 82.77 26.8051C82.7655 27.0032 82.8012 27.2 82.8749 27.3839C82.9486 27.5677 83.0589 27.7347 83.199 27.8748C83.3391 28.0148 83.5061 28.125 83.69 28.1986C83.8739 28.2722 84.0708 28.3078 84.2688 28.3032C85.2308 28.2694 86.1635 27.9636 86.9587 27.4212C87.7539 26.8788 88.379 26.1221 88.7616 25.2388C89.6286 25.0037 90.522 24.8797 91.4203 24.8697C93.3656 24.8697 94.8383 25.5184 95.1327 26.7516C95.6257 26.9375 97.085 26.3755 98.1457 25.3148C98.6267 24.917 98.9347 24.3482 99.005 23.728C99.005 22.923 98.1373 22.2321 96.0117 22.2321C93.6837 22.2367 91.3706 22.6021 89.1546 23.3153M93.0909 27.0854C93.0909 26.8742 92.9501 26.7333 92.6726 26.7333H92.3007V27.8764H92.4542V27.4446H92.674L92.9437 27.8764H93.1233L92.8381 27.4221C92.9122 27.4034 92.9777 27.3598 93.0237 27.2987C93.0697 27.2376 93.0934 27.1619 93.0909 27.0854ZM92.6683 27.3052H92.4528V26.8742H92.6683C92.8493 26.8742 92.9311 26.9622 92.9311 27.089C92.9311 27.2157 92.8493 27.308 92.6683 27.308M92.6479 26.322C92.4529 26.327 92.2637 26.3893 92.1039 26.5013C91.9441 26.6132 91.8209 26.7697 91.7496 26.9513C91.6783 27.1329 91.6621 27.3315 91.703 27.5223C91.7439 27.713 91.8402 27.8874 91.9797 28.0238C92.1193 28.1601 92.2959 28.2523 92.4875 28.2889C92.6792 28.3254 92.8773 28.3046 93.0572 28.2291C93.2371 28.1536 93.3908 28.0268 93.499 27.8645C93.6072 27.7022 93.6652 27.5115 93.6656 27.3165C93.6668 27.1836 93.6412 27.0518 93.5902 26.929C93.5391 26.8063 93.4638 26.6952 93.3688 26.6023C93.2737 26.5094 93.1609 26.4367 93.037 26.3885C92.9131 26.3403 92.7808 26.3177 92.6479 26.322ZM92.6479 28.1715C92.4247 28.1651 92.2129 28.0719 92.0573 27.9118C91.9017 27.7517 91.8147 27.5373 91.8147 27.314C91.8147 27.0907 91.9017 26.8763 92.0573 26.7162C92.2129 26.556 92.4247 26.4629 92.6479 26.4565C92.7626 26.4532 92.8768 26.473 92.9837 26.5146C93.0906 26.5562 93.1881 26.6188 93.2703 26.6988C93.3526 26.7787 93.418 26.8744 93.4627 26.98C93.5073 27.0857 93.5303 27.1993 93.5303 27.314C93.5303 27.4287 93.5073 27.5423 93.4627 27.6479C93.418 27.7536 93.3526 27.8493 93.2703 27.9292C93.1881 28.0092 93.0906 28.0718 92.9837 28.1134C92.8768 28.155 92.7626 28.1748 92.6479 28.1715Z" fill="#0057FF"/>
</g>
<line x1="108.073" y1="31.1591" x2="108.073" y2="0.311583" stroke="#0057FF" stroke-width="0.823809"/>
<defs>
<clipPath id="clip0_1_543">
<rect width="97.5884" height="25.6994" fill="white" transform="translate(117.586 2.8855)"/>
</clipPath>
<clipPath id="clip1_1_543">
<rect width="99.0043" height="25.6994" fill="white" transform="translate(0 2.8855)"/>
</clipPath>
</defs>
</svg>
